HIERARCHY
ROOT Root
{
	OFFSET 0.00000 0.00000 0.00000
	CHANNELS 6 Xposition Yposition Zposition Zrotation Xrotation Yrotation
	JOINT Hip
	{
		OFFSET 0 0 0	
		CHANNELS 3 Zrotation Xrotation Yrotation
		JOINT Tummy
		{
			OFFSET 0 0.04 0	
			CHANNELS 3 Zrotation Xrotation Yrotation
			JOINT ChestBottom
			{
				OFFSET 0 0.194 0	
				CHANNELS 3 Zrotation Xrotation Yrotation
				JOINT ChestTop
				{
					OFFSET 0 0.166 0	
					CHANNELS 3 Zrotation Xrotation Yrotation
					JOINT LeftCollar
					{
						OFFSET 0 0.1 0	
						CHANNELS 3 Zrotation Xrotation Yrotation
						JOINT LeftUpperArm
						{
							OFFSET 0.156 -0.02 0.03	
							CHANNELS 3 Zrotation Xrotation Yrotation
							JOINT LeftForeArm
							{
								OFFSET 0.035 -0.27 -0.01	
								CHANNELS 3 Zrotation Xrotation Yrotation
								JOINT LeftHand
								{
									OFFSET 0.01 -0.27 0.01	
									CHANNELS 3 Zrotation Xrotation Yrotation
									End Site
									{
										OFFSET 0 -0.15 0
									}
								}
							}
						}
					}
					JOINT RightCollar
					{
						OFFSET 0 0.1 0	
						CHANNELS 3 Zrotation Xrotation Yrotation
						JOINT RightUpperArm
						{
							OFFSET -0.156 -0.02 0.03	
							CHANNELS 3 Zrotation Xrotation Yrotation
							JOINT RightForeArm
							{
								OFFSET -0.035 -0.27 -0.01	
								CHANNELS 3 Zrotation Xrotation Yrotation
								JOINT RightHand
								{
									OFFSET -0.01 -0.27 0.01	
									CHANNELS 3 Zrotation Xrotation Yrotation
									End Site
									{
										OFFSET 0 -0.15 0
									}
								}
							}
						}
					}
					JOINT Neck
					{
						OFFSET 0 0.1 0	
						CHANNELS 3 Zrotation Xrotation Yrotation
						JOINT Head
						{
							OFFSET 0 0.127 0.03	
							CHANNELS 3 Zrotation Xrotation Yrotation
							End Site
							{
								OFFSET 0 0.127 0.03
							}
						}
					}
				}
			}
		}
	}
	JOINT LeftHip
	{
		OFFSET 0 0 0	
		CHANNELS 3 Zrotation Xrotation Yrotation
		JOINT LeftThigh
		{
			OFFSET 0.088 -0.06 0	
			CHANNELS 3 Zrotation Xrotation Yrotation
			JOINT LeftLowerLeg
			{
				OFFSET 0 -0.39 0.02	
				CHANNELS 3 Zrotation Xrotation Yrotation
				JOINT LeftFootTop
				{
					OFFSET 0 -0.43 -0.02	
					CHANNELS 3 Zrotation Xrotation Yrotation
					JOINT LeftFootFront
					{
						OFFSET 0 -0.07 0.085	
						CHANNELS 3 Zrotation Xrotation Yrotation
						End Site
						{
							OFFSET 0 -0.005 0.09
						}
					}
				}
				JOINT LeftHeel
				{
					OFFSET 0 -0.43 -0.02	
					CHANNELS 3 Zrotation Xrotation Yrotation
					End Site
					{
						OFFSET 0 -0.075 -0.05
					}
				}
			}
		}
	}
	JOINT RightHip
	{
		OFFSET 0 0 0	
		CHANNELS 3 Zrotation Xrotation Yrotation
		JOINT RightThigh
		{
			OFFSET -0.088 -0.06 0	
			CHANNELS 3 Zrotation Xrotation Yrotation
			JOINT RightLowerLeg
			{
				OFFSET 0 -0.39 0.02	
				CHANNELS 3 Zrotation Xrotation Yrotation
				JOINT RightFootTop
				{
					OFFSET 0 -0.43 -0.02	
					CHANNELS 3 Zrotation Xrotation Yrotation
					JOINT RightFootFront
					{
						OFFSET 0 -0.07 0.085	
						CHANNELS 3 Zrotation Xrotation Yrotation
						End Site
						{
							OFFSET 0 -0.005 0.09
						}
					}
				}
				JOINT RightHeel
				{
					OFFSET 0 -0.43 -0.02	
					CHANNELS 3 Zrotation Xrotation Yrotation
					End Site
					{
						OFFSET 0 -0.075 -0.05
					}
				}
			}
		}
	}
}
MOTION
Frames: 24
Frame Time: 0.008
0 0.95653 0 -0 0 -0 45.887 -32.298 21.184 -11.024 16.439 2.4585 -11.024 16.439 2.4585 -9.1664 13.845 1.8365 -0 0 -0 30.069 -39.831 33.962 -35.227 -68.336 -4.4979 -0 0 -0 -0 0 -0 3.4682 -50.637 -27.432 74.123 -37.992 -0.22915 -0 0 -0 7.8441 4.3152 9.2629 7.8441 4.3152 9.2629 45.887 -32.298 21.184 -9.2305 -37.601 20.031 -34.886 65.58 32.354 -0 0 -0 -0 0 -0 -0 0 -0 45.887 -32.298 21.184 17.311 -70.463 5.8729 -84.482 44.697 69.861 -0 0 -0 -0 0 -0 -0 0 -0 
0 0.95653 0 -0 0 -0 45.802 -32.473 21.1 -10.989 16.446 2.4701 -10.989 16.446 2.4701 -9.1367 13.851 1.8468 -0 0 -0 30.014 -40.104 34.245 -35.226 -68.798 -4.6092 -0 0 -0 -0 0 -0 3.7508 -50.703 -27.525 74.276 -38.257 -0.84601 -0 0 -0 7.6204 4.5107 9.3855 7.6204 4.5107 9.3855 45.802 -32.473 21.1 -8.8968 -37.408 20.135 -34.809 65.581 32.404 -0 0 -0 -0 0 -0 -0 0 -0 45.802 -32.473 21.1 17.968 -71.08 6.1644 -83.629 44.482 69.404 -0 0 -0 -0 0 -0 -0 0 -0 
0 0.95653 0 -0 0 -0 45.691 -32.638 21.002 -10.941 16.447 2.4812 -10.941 16.447 2.4812 -9.0963 13.852 1.8571 -0 0 -0 29.925 -40.352 34.511 -35.172 -69.213 -4.6829 -0 0 -0 -0 0 -0 3.9798 -50.764 -27.619 74.315 -38.539 -1.4503 -0 0 -0 7.3795 4.7096 9.5254 7.3795 4.7096 9.5254 45.691 -32.638 21.002 -8.5345 -37.231 20.284 -34.712 65.613 32.433 -0 0 -0 -0 0 -0 -0 0 -0 45.691 -32.638 21.002 18.662 -71.699 6.4914 -82.763 44.256 68.961 -0 0 -0 -0 0 -0 -0 0 -0 
0 0.95653 0 -0 0 -0 45.556 -32.795 20.893 -10.881 16.442 2.4924 -10.881 16.442 2.4924 -9.0458 13.847 1.8677 -0 0 -0 29.804 -40.577 34.753 -35.062 -69.59 -4.6992 -0 0 -0 -0 0 -0 4.1655 -50.825 -27.71 74.232 -38.84 -2.0401 -0 0 -0 7.1241 4.9088 9.6828 7.1241 4.9088 9.6828 45.556 -32.795 20.893 -8.1432 -37.072 20.475 -34.623 65.668 32.448 -0 0 -0 -0 0 -0 -0 0 -0 45.556 -32.795 20.893 19.393 -72.318 6.8569 -81.884 44.018 68.534 -0 0 -0 -0 0 -0 -0 0 -0 
0 0.95653 0 -0 0 -0 45.398 -32.944 20.772 -10.809 16.433 2.5043 -10.809 16.433 2.5043 -8.9859 13.84 1.8792 -0 0 -0 29.651 -40.781 34.962 -34.896 -69.936 -4.6451 -0 0 -0 -0 0 -0 4.3178 -50.889 -27.795 74.031 -39.16 -2.6156 -0 0 -0 6.8568 5.1054 9.8577 6.8568 5.1054 9.8577 45.398 -32.944 20.772 -7.7222 -36.931 20.703 -34.568 65.741 32.456 -0 0 -0 -0 0 -0 -0 0 -0 45.398 -32.944 20.772 20.159 -72.934 7.2626 -80.992 43.769 68.127 -0 0 -0 -0 0 -0 -0 0 -0 
0 0.95653 0 -0 0 -0 45.215 -33.088 20.639 -10.727 16.422 2.5171 -10.727 16.422 2.5171 -8.917 13.831 1.8917 -0 0 -0 29.467 -40.965 35.13 -34.686 -70.261 -4.5123 -0 0 -0 -0 0 -0 4.4444 -50.957 -27.872 73.722 -39.498 -3.1799 -0 0 -0 6.5802 5.297 10.049 6.5802 5.297 10.049 45.215 -33.088 20.639 -7.2713 -36.809 20.962 -34.563 65.824 32.462 -0 0 -0 -0 0 -0 -0 0 -0 45.215 -33.088 20.639 20.958 -73.544 7.7088 -80.088 43.506 67.741 -0 0 -0 -0 0 -0 -0 0 -0 
0 0.95653 0 -0 0 -0 45.01 -33.226 20.496 -10.635 16.41 2.5312 -10.635 16.41 2.5312 -8.8399 13.82 1.9055 -0 0 -0 29.252 -41.129 35.251 -34.442 -70.57 -4.2955 -0 0 -0 -0 0 -0 4.5484 -51.029 -27.946 73.326 -39.848 -3.7393 -0 0 -0 6.2968 5.4816 10.257 6.2968 5.4816 10.257 45.01 -33.226 20.496 -6.79 -36.706 21.246 -34.616 65.913 32.472 -0 0 -0 -0 0 -0 -0 0 -0 45.01 -33.226 20.496 21.785 -74.148 8.1934 -79.176 43.229 67.376 -0 0 -0 -0 0 -0 -0 0 -0 
0 0.95653 0 -0 0 -0 44.783 -33.36 20.342 -10.534 16.398 2.5471 -10.534 16.398 2.5471 -8.755 13.81 1.921 -0 0 -0 29.007 -41.276 35.319 -34.177 -70.867 -3.9904 -0 0 -0 -0 0 -0 4.6287 -51.104 -28.024 72.869 -40.2 -4.3019 -0 0 -0 6.0093 5.6579 10.478 6.0093 5.6579 10.478 44.783 -33.36 20.342 -6.2788 -36.623 21.548 -34.725 66.006 32.488 -0 0 -0 -0 0 -0 -0 0 -0 44.783 -33.36 20.342 22.634 -74.742 8.7123 -78.255 42.938 67.028 -0 0 -0 -0 0 -0 -0 0 -0 
0 0.95653 0 -0 0 -0 44.534 -33.489 20.178 -10.424 16.386 2.5651 -10.424 16.386 2.5651 -8.6632 13.8 1.9384 -0 0 -0 28.733 -41.405 35.331 -33.9 -71.153 -3.5952 -0 0 -0 -0 0 -0 4.6801 -51.179 -28.123 72.379 -40.543 -4.8758 -0 0 -0 5.7201 5.8248 10.711 5.7201 5.8248 10.711 44.534 -33.489 20.178 -5.7385 -36.56 21.866 -34.876 66.104 32.511 -0 0 -0 -0 0 -0 -0 0 -0 44.534 -33.489 20.178 23.499 -75.327 9.2589 -77.328 42.63 66.694 -0 0 -0 -0 0 -0 -0 0 -0 
0 0.95653 0 -0 0 -0 44.267 -33.613 20.006 -10.308 16.375 2.5855 -10.308 16.375 2.5855 -8.5654 13.79 1.9579 -0 0 -0 28.433 -41.515 35.284 -33.614 -71.429 -3.1106 -0 0 -0 -0 0 -0 4.6957 -51.252 -28.259 71.885 -40.861 -5.4671 -0 0 -0 5.4322 5.9818 10.955 5.4322 5.9818 10.955 44.267 -33.613 20.006 -5.1703 -36.514 22.2 -35.049 66.212 32.536 -0 0 -0 -0 0 -0 -0 0 -0 44.267 -33.613 20.006 24.368 -75.9 9.8237 -76.396 42.303 66.367 -0 0 -0 -0 0 -0 -0 0 -0 
0 0.95653 0 -0 0 -0 43.982 -33.733 19.825 -10.185 16.365 2.6083 -10.185 16.365 2.6083 -8.4628 13.781 1.9795 -0 0 -0 28.111 -41.608 35.184 -33.322 -71.691 -2.543 -0 0 -0 -0 0 -0 4.6686 -51.322 -28.45 71.412 -41.139 -6.0789 -0 0 -0 5.1485 6.1278 11.207 5.1485 6.1278 11.207 43.982 -33.733 19.825 -4.5754 -36.487 22.555 -35.214 66.337 32.553 -0 0 -0 -0 0 -0 -0 0 -0 43.982 -33.733 19.825 25.23 -76.46 10.395 -75.461 41.957 66.04 -0 0 -0 -0 0 -0 -0 0 -0 
0 0.95653 0 -0 0 -0 43.682 -33.849 19.637 -10.059 16.355 2.6335 -10.059 16.355 2.6335 -8.3569 13.773 2.0032 -0 0 -0 27.775 -41.683 35.041 -33.025 -71.935 -1.9045 -0 0 -0 -0 0 -0 4.5939 -51.387 -28.713 70.976 -41.36 -6.71 -0 0 -0 4.8723 6.2616 11.466 4.8723 6.2616 11.466 43.682 -33.849 19.637 -3.9551 -36.478 22.937 -35.343 66.487 32.547 -0 0 -0 -0 0 -0 -0 0 -0 43.682 -33.849 19.637 26.073 -77.008 10.959 -74.524 41.589 65.706 -0 0 -0 -0 0 -0 -0 0 -0 
0 0.95653 0 -0 0 -0 43.371 -33.96 19.442 -9.9313 16.348 2.6613 -9.9313 16.348 2.6613 -8.2496 13.767 2.029 -0 0 -0 27.434 -41.744 34.868 -32.723 -72.156 -1.2128 -0 0 -0 -0 0 -0 4.4699 -51.448 -29.058 70.588 -41.515 -7.3558 -0 0 -0 4.6068 6.3809 11.731 4.6068 6.3809 11.731 43.371 -33.96 19.442 -3.3108 -36.486 23.354 -35.408 66.67 32.5 -0 0 -0 -0 0 -0 -0 0 -0 43.371 -33.96 19.442 26.881 -77.541 11.503 -73.588 41.198 65.36 -0 0 -0 -0 0 -0 -0 0 -0 
0 0.95653 0 -0 0 -0 43.051 -34.065 19.24 -9.8041 16.342 2.6918 -9.8041 16.342 2.6918 -8.1427 13.762 2.0571 -0 0 -0 27.099 -41.792 34.684 -32.417 -72.346 -0.48855 -0 0 -0 -0 0 -0 4.2974 -51.507 -29.493 70.249 -41.597 -8.0089 -0 0 -0 4.3555 6.483 12.001 4.3555 6.483 12.001 43.051 -34.065 19.24 -2.644 -36.512 23.813 -35.387 66.89 32.393 -0 0 -0 -0 0 -0 -0 0 -0 43.051 -34.065 19.24 27.642 -78.059 12.015 -72.654 40.784 64.997 -0 0 -0 -0 0 -0 -0 0 -0 
0 0.95653 0 -0 0 -0 42.724 -34.165 19.033 -9.6799 16.338 2.7257 -9.6799 16.338 2.7257 -8.0382 13.759 2.088 -0 0 -0 26.781 -41.834 34.504 -32.108 -72.496 0.24684 -0 0 -0 -0 0 -0 4.0802 -51.566 -30.019 69.954 -41.606 -8.6602 -0 0 -0 4.1221 6.5645 12.275 4.1221 6.5645 12.275 42.724 -34.165 19.033 -1.9566 -36.554 24.318 -35.263 67.15 32.21 -0 0 -0 -0 0 -0 -0 0 -0 42.724 -34.165 19.033 28.345 -78.563 12.486 -71.727 40.349 64.617 -0 0 -0 -0 0 -0 -0 0 -0 
0 0.95653 0 -0 0 -0 42.394 -34.258 18.82 -9.561 16.337 2.7643 -9.561 16.337 2.7643 -7.9381 13.757 2.1226 -0 0 -0 26.492 -41.876 34.343 -31.795 -72.601 0.97332 -0 0 -0 -0 0 -0 3.8236 -51.628 -30.63 69.693 -41.546 -9.3004 -0 0 -0 3.9098 6.622 12.55 3.9098 6.622 12.55 42.394 -34.258 18.82 -1.2511 -36.61 24.873 -35.032 67.445 31.937 -0 0 -0 -0 0 -0 -0 0 -0 42.394 -34.258 18.82 28.983 -79.052 12.911 -70.808 39.896 64.221 -0 0 -0 -0 0 -0 -0 0 -0 
0 0.95653 0 -0 0 -0 42.063 -34.342 18.601 -9.4495 16.338 2.8088 -9.4495 16.338 2.8088 -7.8439 13.758 2.1619 -0 0 -0 26.239 -41.922 34.214 -31.484 -72.654 1.673 -0 0 -0 -0 0 -0 3.5342 -51.694 -31.318 69.453 -41.427 -9.9207 -0 0 -0 3.7218 6.6528 12.824 3.7218 6.6528 12.824 42.063 -34.342 18.601 -0.53042 -36.679 25.476 -34.692 67.771 31.566 -0 0 -0 -0 0 -0 -0 0 -0 42.063 -34.342 18.601 29.551 -79.525 13.289 -69.903 39.428 63.811 -0 0 -0 -0 0 -0 -0 0 -0 
0 0.95653 0 -0 0 -0 41.734 -34.419 18.377 -9.3469 16.341 2.8605 -9.3469 16.341 2.8605 -7.7572 13.761 2.2072 -0 0 -0 26.028 -41.977 34.122 -31.179 -72.653 2.3297 -0 0 -0 -0 0 -0 3.2187 -51.765 -32.073 69.225 -41.261 -10.514 -0 0 -0 3.5603 6.655 13.095 3.5603 6.655 13.095 41.734 -34.419 18.377 0.20197 -36.758 26.123 -34.25 68.119 31.091 -0 0 -0 -0 0 -0 -0 0 -0 41.734 -34.419 18.377 30.049 -79.983 13.62 -69.017 38.949 63.392 -0 0 -0 -0 0 -0 -0 0 -0 
0 0.95653 0 -0 0 -0 41.41 -34.487 18.149 -9.2544 16.346 2.9207 -9.2544 16.346 2.9207 -7.6786 13.765 2.2593 -0 0 -0 25.859 -42.045 34.071 -30.893 -72.599 2.9292 -0 0 -0 -0 0 -0 2.8839 -51.842 -32.88 69 -41.061 -11.076 -0 0 -0 3.4267 6.6281 13.359 3.4267 6.6281 13.359 41.41 -34.487 18.149 0.94233 -36.844 26.808 -33.714 68.478 30.514 -0 0 -0 -0 0 -0 -0 0 -0 41.41 -34.487 18.149 30.475 -80.424 13.905 -68.155 38.463 62.972 -0 0 -0 -0 0 -0 -0 0 -0 
0 0.95653 0 -0 0 -0 41.092 -34.546 17.917 -9.1725 16.351 2.9899 -9.1725 16.351 2.9899 -7.6088 13.771 2.3187 -0 0 -0 25.731 -42.126 34.061 -30.638 -72.493 3.4599 -0 0 -0 -0 0 -0 2.5361 -51.921 -33.724 68.774 -40.842 -11.605 -0 0 -0 3.3215 6.5725 13.615 3.3215 6.5725 13.615 41.092 -34.546 17.917 1.6869 -36.935 27.522 -33.092 68.84 29.839 -0 0 -0 -0 0 -0 -0 0 -0 41.092 -34.546 17.917 30.827 -80.847 14.141 -67.324 37.971 62.556 -0 0 -0 -0 0 -0 -0 0 -0 
0 0.95653 0 -0 0 -0 40.783 -34.596 17.684 -9.1013 16.357 3.0681 -9.1013 16.357 3.0681 -7.5477 13.776 2.3854 -0 0 -0 25.638 -42.219 34.086 -30.425 -72.342 3.915 -0 0 -0 -0 0 -0 2.1814 -52.002 -34.59 68.546 -40.617 -12.102 -0 0 -0 3.2438 6.4895 13.859 3.2438 6.4895 13.859 40.783 -34.596 17.684 2.4319 -37.027 28.255 -32.392 69.195 29.071 -0 0 -0 -0 0 -0 -0 0 -0 40.783 -34.596 17.684 31.101 -81.251 14.322 -66.529 37.477 62.155 -0 0 -0 -0 0 -0 -0 0 -0 
0 0.95653 0 -0 0 -0 40.484 -34.64 17.45 -9.0405 16.363 3.1549 -9.0405 16.363 3.1549 -7.495 13.781 2.4591 -0 0 -0 25.573 -42.323 34.141 -30.264 -72.153 4.2936 -0 0 -0 -0 0 -0 1.826 -52.081 -35.46 68.316 -40.397 -12.57 -0 0 -0 3.1915 6.3806 14.091 3.1915 6.3806 14.091 40.484 -34.64 17.45 3.1744 -37.118 28.999 -31.619 69.537 28.217 -0 0 -0 -0 0 -0 -0 0 -0 40.484 -34.64 17.45 31.29 -81.634 14.441 -65.778 36.98 61.778 -0 0 -0 -0 0 -0 -0 0 -0 
0 0.95653 0 -0 0 -0 40.195 -34.678 17.217 -8.9896 16.368 3.2493 -8.9896 16.368 3.2493 -7.4506 13.786 2.5389 -0 0 -0 25.528 -42.435 34.216 -30.154 -71.939 4.6023 -0 0 -0 -0 0 -0 1.4761 -52.158 -36.318 68.087 -40.193 -13.012 -0 0 -0 3.1618 6.2475 14.309 3.1618 6.2475 14.309 40.195 -34.678 17.217 3.9122 -37.207 29.744 -30.776 69.86 27.285 -0 0 -0 -0 0 -0 -0 0 -0 40.195 -34.678 17.217 31.389 -81.995 14.489 -65.073 36.484 61.431 -0 0 -0 -0 0 -0 -0 0 -0 
0 0.95653 0 -0 0 -0 39.916 -34.711 16.986 -8.9482 16.372 3.3501 -8.9482 16.372 3.3501 -7.414 13.791 2.624 -0 0 -0 25.497 -42.553 34.303 -30.09 -71.709 4.8535 -0 0 -0 -0 0 -0 1.1378 -52.231 -37.148 67.857 -40.011 -13.434 -0 0 -0 3.1509 6.0911 14.513 3.1509 6.0911 14.513 39.916 -34.711 16.986 4.6446 -37.293 30.486 -29.865 70.16 26.28 -0 0 -0 -0 0 -0 -0 0 -0 39.916 -34.711 16.986 31.392 -82.334 14.459 -64.42 35.988 61.123 -0 0 -0 -0 0 -0 -0 0 -0 
